<?xml version="1.0" encoding="UTF-8"?>
<svg width="8px" height="8px" viewBox="0 0 8 8" version="1.1" xmlns="http://www.w3.org/2000/svg" xmlns:xlink="http://www.w3.org/1999/xlink">
    <title>22</title>
    <g id="Page-1" stroke="none" stroke-width="1" fill="none" fill-rule="evenodd">
        <g id="22">
            <rect id="Rectangle" fill="#000000" x="0" y="0" width="8" height="8"></rect>
            <rect id="Rectangle-2" fill="#FFFFFF" x="1" y="1" width="1" height="1"></rect>
            <rect id="Rectangle-2" fill="#FFFFFF" x="4" y="2" width="1" height="1"></rect>
            <rect id="Rectangle-2" fill="#FFFFFF" x="3" y="2" width="1" height="1"></rect>
            <rect id="Rectangle-2" fill="#FFFFFF" x="2" y="3" width="1" height="1"></rect>
            <rect id="Rectangle-2" fill="#FFFFFF" x="4" y="3" width="1" height="1"></rect>
            <rect id="Rectangle-2" fill="#FFFFFF" x="6" y="1" width="1" height="1"></rect>
            <rect id="Rectangle-2" fill="#FFFFFF" x="6" y="5" width="1" height="1"></rect>
            <rect id="Rectangle-2" fill="#FFFFFF" x="4" y="6" width="1" height="1"></rect>
            <rect id="Rectangle-2" fill="#FFFFFF" x="2" y="6" width="1" height="1"></rect>
            <rect id="Rectangle-2" fill="#FFFFFF" x="6" y="2" width="1" height="1"></rect>
            <rect id="Rectangle-2" fill="#FFFFFF" x="1" y="6" width="1" height="1"></rect>
            <rect id="Rectangle-2" fill="#FFFFFF" x="3" y="6" width="1" height="1"></rect>
            <rect id="Rectangle-2" fill="#FFFFFF" x="2" y="5" width="1" height="1"></rect>
            <rect id="Rectangle-2" fill="#FFFFFF" x="2" y="4" width="1" height="1"></rect>
            <rect id="Rectangle-2" fill="#FFFFFF" x="5" y="1" width="1" height="1"></rect>
            <rect id="Rectangle-2" fill="#FFFFFF" x="3" y="4" width="1" height="1"></rect>
            <rect id="Rectangle-2" fill="#FFFFFF" x="4" y="5" width="1" height="1"></rect>
            <rect id="Rectangle-2" fill="#FFFFFF" x="5" y="5" width="1" height="1"></rect>
            <rect id="Rectangle-2" fill="#FFFFFF" x="5" y="4" width="1" height="1"></rect>
            <rect id="Rectangle-2" fill="#FFFFFF" x="5" y="6" width="1" height="1"></rect>
        </g>
    </g>
</svg>